<?xml version="1.0" encoding="UTF-8" standalone="no"?>
<!-- Uploaded to: SVG Repo, www.svgrepo.com, Generator: SVG Repo Mixer Tools -->

<svg
   fill="#000000"
   width="2500"
   height="800"
   viewBox="0 0 75 24"
   role="img"
   version="1.1"
   id="svg1"
   sodipodi:docname="logo.svg"
   inkscape:version="1.4 (86a8ad7, 2024-10-11)"
   xmlns:inkscape="http://www.inkscape.org/namespaces/inkscape"
   xmlns:sodipodi="http://sodipodi.sourceforge.net/DTD/sodipodi-0.dtd"
   xmlns="http://www.w3.org/2000/svg"
   xmlns:svg="http://www.w3.org/2000/svg"
   xmlns:rdf="http://www.w3.org/1999/02/22-rdf-syntax-ns#"
   xmlns:cc="http://creativecommons.org/ns#"
   xmlns:dc="http://purl.org/dc/elements/1.1/">
  <sodipodi:namedview
     id="namedview1"
     pagecolor="#ffffff"
     bordercolor="#000000"
     borderopacity="0.25"
     inkscape:showpageshadow="2"
     inkscape:pageopacity="0.0"
     inkscape:pagecheckerboard="0"
     inkscape:deskcolor="#d1d1d1"
     showguides="true"
     inkscape:zoom="0.1767767"
     inkscape:cx="-1436.841"
     inkscape:cy="-534.57272"
     inkscape:window-width="2560"
     inkscape:window-height="1334"
     inkscape:window-x="-11"
     inkscape:window-y="-11"
     inkscape:window-maximized="1"
     inkscape:current-layer="svg1" />
  <defs
     id="defs1" />
  <title
     id="title1">United Airlines icon</title>
  <path
     d="m 0,0 v 4.0030078 l 0.01898437,-0.00703 C 1.7208726,3.3801366 3.517108,3.0657607 5.3269922,3.0669727 c 8.6539998,0 15.6949808,7.0680433 15.6949808,15.7540433 0,1.762 -0.297981,3.514984 -0.874981,5.178984 H 24 V 0 Z m 16.942031,2.2931836 c 0.136102,8.452e-4 0.290601,0.029931 0.411211,0.08291 l 1.942266,0.8527148 c 0.192975,0.084657 0.493858,0.063962 0.672187,-0.046348 l 0.867481,-0.5373046 c 0.178329,-0.1102181 0.436296,-0.1404994 0.582832,-0.081094 0.241783,0.097947 0.260508,0.2851874 0.260508,0.3948047 0,0.1519094 -0.147069,0.3606747 -0.328301,0.4665234 L 20.467617,3.939375 c -0.181232,0.1057577 -0.330816,0.3557192 -0.334043,0.5582227 l -0.03147,2.0384765 c -0.003,0.2025035 -0.101346,0.4535406 -0.219316,0.5603906 -0.118199,0.1069411 -0.272691,0.039184 -0.345176,-0.1512304 L 18.92373,5.3318555 C 18.851245,5.1413315 18.6349,5.053527 18.440684,5.1355078 l -0.792891,0.3347461 c -0.194217,0.08189 -0.32784,0.3036425 -0.298242,0.4950586 0.0295,0.1914161 -0.0088,0.3829679 -0.08561,0.4280273 -0.07665,0.04495 -0.23355,-0.055601 -0.350508,-0.2248242 l -0.58816,-0.8910351 c -0.109778,-0.1734834 -0.137408,-0.3520451 -0.06158,-0.3983789 0.07527,-0.046734 0.273313,0.00291 0.441446,0.1110351 0.168362,0.1081244 0.435702,0.088701 0.597304,-0.042891 l 0.65877,-0.5375977 c 0.161507,-0.1317009 0.171735,-0.3556747 0.02279,-0.5001562 l -1.261405,-1.224316 c -0.149133,-0.1445725 -0.146525,-0.3067051 0.0056,-0.3620508 0.0571,-0.020796 0.132147,-0.030449 0.213808,-0.029941 z M 5.5183594,3.6018164 c -0.5612012,-0.01011 -1.02,0.049316 -1.284375,0.086191 -0.929,0.13 -1.6309571,0.3339844 -1.6309571,0.3339844 0.207,0.019 0.4899844,0.056031 0.6939844,0.097031 0.15,-0.036 1.4539922,-0.3330039 2.4019922,-0.2090039 h 0.00299 c -0.697,0.076 -1.6469766,0.3629844 -1.7459766,0.3939844 h -0.00199 c 0.2318308,0.074085 0.4543073,0.174755 0.6629883,0.3 0.102,-0.026 1.3920078,-0.3689883 2.6230078,-0.3929883 0,0 0.4549688,0.2019688 0.8929688,0.5029688 -1.59,-0.006 -2.9069922,0.3000273 -2.9419922,0.3080273 0.186,0.165 0.3710117,0.3639883 0.5370117,0.6029883 1.744,-0.262 3.2479688,-0.1480078 3.2479688,-0.1480078 0,0 0.2040156,0.2500273 0.2960156,0.3830273 0.1211185,0.1803527 0.230354,0.3684075 0.3270117,0.5629688 -1.779,-0.208 -3.4799922,-0.059004 -3.4819922,-0.059004 0.118,0.303 0.197,0.6270273 0.24,0.9680273 0.197,-0.002 1.7039688,9.961e-4 3.6229688,0.3459961 0.062,0.44 0.068039,0.912 0.020039,1.41 C 8.8097139,8.7852815 7.5992828,8.5680673 6.3779883,8.4380273 c -0.035,0.43 -0.1159922,0.8769961 -0.2419922,1.3359961 0.192,0.045 2.3170156,0.5520036 3.5060156,1.0340036 -0.1897343,0.604083 -0.4261094,1.192513 -0.7069922,1.759981 -0.958,-0.472 -3.3070312,-1.39002 -3.3070312,-1.39002 -0.2477424,0.549129 -0.534471,1.07982 -0.8579883,1.588008 0,0 2.0140039,1.149996 2.9840039,1.785996 -0.4617035,0.65769 -0.9664812,1.284062 -1.5110156,1.875 -0.704,-0.63 -2.4639922,-1.994012 -2.5969922,-2.097012 -0.4754631,0.553301 -0.9746,1.085808 -1.4960156,1.596036 l 2.1120117,2.421972 -0.06,0.05303 c -0.458,0.38 -0.9499961,0.735992 -1.3659961,1.021992 -0.361,0.245 -0.6600117,0.434976 -0.7620117,0.500976 -0.5426846,-0.862609 -1.08101176,-1.727952 -1.61496096,-2.595996 -0.152,0.113 -0.30502735,0.220016 -0.45802734625,0.326016 v 4.539023 C 0.24899609,22.073027 0.49801563,21.948973 0.74601562,21.816973 c 1.21610858,-0.604802 2.36341228,-1.339051 3.42199218,-2.19 0.7502259,-0.595636 1.4601236,-1.240371 2.1250195,-1.929961 0.8148732,-0.831793 1.5513111,-1.736953 2.199961,-2.703985 2.3289997,-3.438 2.9520347,-7.0230465 1.2360351,-9.3330465 V 5.6589844 C 8.4832734,3.9828594 6.753002,3.6240581 5.5183594,3.6018164 Z m 2.8436133,0.3751758 c 0.264,0.141 0.484039,0.2849961 0.485039,0.2859961 0.013,0.004 1.1279922,0.2829922 2.1169923,0.7669922 0,0 -0.899977,-0.2040039 -1.4759767,-0.2840039 0.238,0.21 0.4649844,0.4500078 0.6639847,0.7030078 0,0 1.835,0.3350156 2.64,0.7760156 0,0 0.386015,0.3970078 0.701015,1.0930078 -1.257,-0.51 -2.682011,-0.7770117 -2.682011,-0.7770117 0.19,0.424 0.324988,0.878 0.407988,1.35 0,0 1.566012,0.3829883 2.742012,0.9479883 0.102,0.559 0.140007,1.1360195 0.118007,1.7200196 -0.896024,-0.441567 -1.821582,-0.8204829 -2.770019,-1.1340235 -0.03217,0.6298035 -0.128329,1.2547005 -0.286992,1.8650395 0,0 1.89798,0.846953 2.74998,1.361953 -0.191869,0.754756 -0.449514,1.491246 -0.76998,2.201015 -1.299,-0.844 -2.672989,-1.593984 -2.672989,-1.593984 -0.3459996,0.83 -1.1950191,2.187012 -1.1950191,2.187012 0.022,0.015 1.4360001,0.985992 2.5200001,1.846992 -0.546063,0.823773 -1.149925,1.607736 -1.8070313,2.345976 C 9.0798274,18.945725 8.3091533,18.25638 7.5349805,17.570977 6.8845931,18.323467 6.1847181,19.03172 5.4400195,19.691016 l 2.0080078,2.272968 c -1.302,1.074 -2.6010351,1.887012 -2.6010351,1.887012 L 3.1699805,21.46998 C 3.1699805,21.46998 1.99,22.367 0,23.31 V 24 H 6.5370117 C 13.834012,18.48 16.422984,10.585023 13.428984,6.4890234 h 9.96e-4 C 13.310574,6.3216353 13.176743,6.1650218 13.03002,6.0209766 12.903487,5.8986228 12.76992,5.7837595 12.63,5.6769727 11.128,4.5439727 8.3619727,3.9769922 8.3619727,3.9769922 Z M 2.2608984,4.3160156 C 1.8779922,4.3021406 1.4752773,4.3254805 1.0580273,4.3849805 L 0.92302734,4.4050195 C 0.79373393,4.4274625 0.66502183,4.4531346 0.53701172,4.4820117 0.28001172,4.5420117 0.104,4.5999805 0,4.6399805 v 0.500039 C 0.16372238,5.0104982 0.33217727,4.8870741 0.50501953,4.77 0.83801953,4.7 1.1609883,4.6540039 1.4729883,4.6340039 0.98998828,4.9100039 0.434,5.2829922 0,5.6269922 v 0.3850195 l 0.015,0.00896 c 0,0 1.2239766,-0.9689766 2.1959766,-1.3859766 0.234,0.017 0.4580117,0.050023 0.6720117,0.099023 -0.9127216,0.3886014 -1.7835344,0.8690641 -2.59898439,1.4339649 0.15,0.088 0.28498828,0.1989883 0.30298828,0.2129883 0.019,-0.012 1.42703121,-0.891961 2.97703121,-1.419961 0.21,0.096 0.4129844,0.2159766 0.5889844,0.3509766 -1.688,0.474 -3.31001952,1.3209961 -3.31001952,1.3209961 0.092,0.106 0.17199222,0.2210039 0.24199222,0.3440039 l 0.029004,-0.011016 c 1.727,-0.74 3.5620312,-1.1179688 3.5620312,-1.1179688 0.143,0.196 0.2619727,0.4160078 0.3519727,0.6580078 0,0 -1.647,0.1880078 -3.765,0.8680078 0.093,0.292 0.1190039,0.5119805 0.1190039,0.5149805 0,0 1.9970039,-0.4469922 3.8390039,-0.4969922 0.026,0.296 0.015984,0.6279649 -0.026016,0.9689649 -1.09,-0.058 -3.6899571,0.080004 -3.7909571,0.089004 0,0 -0.010051,0.3740351 -0.1070507,0.7260351 0,0 1.8990156,0.060969 3.6260156,0.3829688 -0.1367332,0.4193518 -0.3062606,0.8272912 -0.5070117,1.2200382 -1.15,-0.346 -2.8969532,-0.765996 -3.3569532,-0.8709953 -0.12493733,0.3060293 -0.27653653,0.6004833 -0.45304684,0.8799603 0,0 2.13400784,0.930035 2.95300784,1.386035 h 0.00199 v 9.97e-4 c -0.356,0.532 -1.059961,1.276992 -1.059961,1.276992 C 2.3083825,13.307721 2.1150403,13.164379 1.9209961,13.021992 L 0.00498047,11.685 0,11.68002 v 1.76496 l 1.1070117,1.291993 C 0.74301172,15.030973 0.371,15.299004 0,15.539004 v 1.052988 l 0.04101562,-0.02602 C 0.56059007,16.212066 1.0587837,15.827743 1.5329883,15.41502 c 3.819,-3.323 5.383,-7.77302 3.495,-9.94002 L 5.0269922,5.47699 C 4.3797422,4.7344922 3.4096172,4.3576406 2.2608984,4.3160156 Z M 13.796016,6.2879883 c 0.15,0.191 0.285011,0.3889844 0.402011,0.5889844 0,0 1.230957,0.9130195 1.945957,1.8400195 -0.917,-0.652 -1.435988,-0.9169805 -1.502988,-0.9499805 l -0.008,-0.00398 c 0.348,0.859 0.452989,1.569961 0.452989,1.569961 0,0 1.088011,0.5680351 2.067011,1.4160343 0.136,0.627 0.191989,1.269969 0.182989,1.912969 -0.987,-0.869 -2.13,-1.546992 -2.13,-1.546992 -0.02453,0.742015 -0.119624,1.480011 -0.284004,2.204004 0,0 1.079,0.68298 2.13,1.63998 0,0 -0.302024,1.358024 -0.789024,2.424024 -0.659714,-0.610317 -1.350288,-1.186406 -2.069004,-1.725996 0,0 -0.499972,1.304976 -1.311972,2.615976 0.665797,0.582149 1.318938,1.178616 1.958965,1.788985 -0.582188,0.904263 -1.231683,1.763375 -1.942969,2.570039 v 9.96e-4 l -1.807,-1.798012 c -0.734156,0.907122 -1.5336082,1.75939 -2.3919731,2.55 0.04,0.046 0.4040078,0.45 0.5530078,0.615 h 3.7149613 c 1.704,-1.905 3.155031,-4.146973 4.027031,-6.546973 0.757,-2.082 1.16898,-4.62505 0.49998,-6.88705 -0.04598,-0.151895 -0.09768,-0.302002 -0.15498,-0.45 C 17.146709,9.6072061 16.879053,9.1302203 16.545,8.7009961 15.729283,7.7887967 14.806256,6.9785803 13.796016,6.2879883 Z M 0,6.5830078 V 10.533984 C 0.975,9.1449844 1.1159805,7.5510273 0.25998047,6.7730273 0.18010726,6.7008888 0.09298305,6.6372098 0,6.5830078 Z m 17.86998,3.8009762 c 0.155021,0.46267 0.280931,0.934589 0.376993,1.412989 0.163,0.273 0.900023,1.572054 0.999023,3.001054 v 0.004 c 0,0 -0.519973,-0.729039 -0.906973,-1.190039 -0.01742,0.783932 -0.111203,1.564301 -0.280019,2.330039 0,0 0.771973,0.894 1.116973,1.47 0,0 -0.234989,1.257992 -0.737989,2.461992 -0.512,-0.745 -1.166015,-1.468008 -1.166015,-1.468008 -0.392744,0.9625 -0.862939,1.891544 -1.405957,2.777988 0,0 0.977972,1.144 1.191972,1.47 C 16.770988,23.137984 16.49102,23.559 16.18002,24 h 0.901992 c 2.567,-3.792 2.696015,-7.153012 2.696015,-7.797012 0,-1.216 -0.204035,-2.333965 -0.546035,-3.218965 0,0 -0.532012,-1.375039 -1.362012,-2.600039 z m 2.371993,6.304043 c -0.069,0.998 -0.242989,1.87295 -0.242989,1.87295 0.041,0.132 0.114012,0.34905 0.147012,0.48205 v 9.96e-4 c -0.10558,1.012938 -0.297947,2.014939 -0.57498,2.994961 -0.131,-0.484 -0.306989,-0.94998 -0.317989,-0.97998 h -0.0011 C 18.898927,21.999004 18.37097,23.109 17.89097,24 h 1.559004 c 0.194,-0.525 0.368992,-1.084984 0.511992,-1.653984 0.446388,-1.851885 0.541351,-3.771083 0.279961,-5.657989 z"
     style="baseline-shift:baseline;display:inline;overflow:visible;vector-effect:none;enable-background:accumulate;stop-color:#000000;stop-opacity:1;fill:#ffffff"
     id="path56" />
  <metadata
     id="metadata10">
    <rdf:RDF>
      <cc:Work
         rdf:about="">
        <dc:title>United Airlines icon</dc:title>
      </cc:Work>
    </rdf:RDF>
  </metadata>
  <path
     style="font-size:10.2696px;line-height:0;font-family:'Intro Demo';-inkscape-font-specification:'Intro Demo';letter-spacing:0.126231px;word-spacing:1.12806px;opacity:0.98;stroke-width:0.616822;fill:#ffffff"
     d="m 31.396813,11.201532 c 1.827988,0 2.988453,-1.150195 2.988453,-2.8549491 V 3.8998462 h -1.879337 v 4.4364671 c 0,0.7086024 -0.390244,1.0988477 -1.109116,1.0988477 -0.718872,0 -1.109117,-0.3902453 -1.109117,-1.0988477 V 3.8998462 h -1.879337 v 4.4467367 c 0,1.7047541 1.160465,2.8549491 2.988454,2.8549491 z m 8.999158,-3.6457083 c 0.852377,-0.7291416 1.191274,-1.9820328 1.191274,-3.6559775 h -1.879337 c 0,1.7561015 -0.369706,2.6803655 -1.653406,2.6803655 H 37.86965 V 3.8998462 H 35.990313 V 11.088566 H 37.86965 V 8.2438869 h 0.277279 c 0.195122,0 0.379975,-0.01027 0.564828,-0.030809 l 1.324778,2.8754881 h 2.05392 V 10.98587 Z m 7.40738,0.9139944 c 0.729142,-0.4210536 1.170735,-1.1604648 1.170735,-2.0333808 0,-1.5199008 -1.129656,-2.5365911 -2.741984,-2.5365911 h -3.06034 v 7.1887198 h 1.879336 V 8.8703325 h 1.006421 l 1.211813,2.2182335 H 49.3746 v -0.05135 z M 45.051098,5.5224429 h 1.088578 c 0.585367,0 0.934534,0.3286272 0.934534,0.872916 0,0.5545584 -0.349167,0.8831856 -0.934534,0.8831856 H 45.051098 Z M 53.844862,3.827959 h -0.821568 l -3.378698,7.157911 v 0.102696 h 2.023111 l 0.400514,-0.913994 h 2.711175 l 0.410784,0.913994 h 2.023111 V 10.98587 Z m -0.410784,2.9679143 0.646985,1.7561016 h -1.324779 z m 4.572977,4.2926927 h 1.879337 V 3.8998462 h -1.879337 z m 7.91059,-7.1887198 v 2.2490423 l 0.03081,1.2734304 -3.635438,-3.5532815 h -0.75995 v 7.2195286 h 1.848528 V 8.7368277 l -0.02054,-1.2939696 3.625169,3.6662469 h 0.75995 V 3.8998462 Z M 71.301904,9.404352 V 8.2849653 H 73.71526 V 6.6418293 H 71.301904 V 5.5737909 h 2.618748 V 3.8998462 h -4.487815 v 7.1887198 h 4.580241 V 9.404352 Z"
     id="text17"
     aria-label="UKRaINE&#10;"
     sodipodi:nodetypes="ssccsssccsscccsccccccsccccccssccccccccccssscccccccccccccccccccccccccccccccccccccccccccccccc" />
  <path
     d="m 31.736555,13.227116 h -0.803456 l -3.304212,7.00011 v 0.100432 h 1.97851 l 0.391685,-0.893844 h 2.651404 l 0.401728,0.893844 h 1.978511 v -0.100432 z m -0.401728,2.902485 0.632722,1.717387 h -1.295573 z m 4.432901,4.198057 h 1.837906 v -7.030239 h -1.837906 z m 7.958057,-2.561015 c 0.713067,-0.411772 1.144925,-1.134882 1.144925,-1.988554 0,-1.486394 -1.104752,-2.48067 -2.681535,-2.48067 h -2.992873 v 7.030239 h 1.837905 v -2.169331 h 0.984234 l 1.185097,2.169331 h 2.058856 v -0.05022 z m -2.691578,-2.882399 h 1.064579 c 0.572463,0 0.913932,0.321383 0.913932,0.853672 0,0.542333 -0.341469,0.863715 -0.913932,0.863715 h -1.064579 z m 7.144547,3.79633 v -5.383155 h -1.837906 v 7.030239 h 4.378835 v -1.647084 z m 3.539051,1.647084 h 1.837906 v -7.030239 h -1.837906 z m 7.696934,-7.030239 v 2.19946 l 0.03013,1.245357 -3.555292,-3.474947 H 55.14638 v 7.060369 h 1.807776 v -2.299892 l -0.02009,-1.265443 3.54525,3.585422 h 0.743197 v -7.050326 z m 5.226294,5.383155 v -1.094709 h 2.360152 V 15.978953 H 64.641033 V 14.93446 h 2.561016 v -1.637041 h -4.388878 v 7.030239 h 4.479267 v -1.647084 z m 6.552014,1.75756 c 1.707344,0 2.872355,-0.873759 2.872355,-2.179375 0,-1.2554 -0.763283,-2.058856 -2.802053,-2.25972 -0.813499,-0.08034 -1.074622,-0.261123 -1.074622,-0.612635 0,-0.371598 0.331425,-0.602592 0.94406,-0.602592 0.602592,0 0.964148,0.261123 0.964148,0.703024 h 1.767603 c 0,-1.375918 -1.114795,-2.299892 -2.751837,-2.299892 -1.637041,0 -2.751837,0.873758 -2.751837,2.139201 0,1.185098 0.672895,2.048813 2.591146,2.25972 0.823542,0.09039 1.2554,0.22095 1.2554,0.622678 0,0.391685 -0.381642,0.622679 -1.03445,0.622679 -0.703024,0 -1.084665,-0.28121 -1.084665,-0.763284 h -1.797733 c 0,1.486394 1.084666,2.370196 2.902485,2.370196 z"
     id="text19"
     style="font-weight:900;font-size:10.0432px;line-height:0;font-family:'Intro Demo';-inkscape-font-specification:'Intro Demo Heavy';letter-spacing:0.0841863px;word-spacing:1.47611px;opacity:0.98;stroke-width:0.411371;fill:#ffffff"
     aria-label="AirLiNES" />
</svg>
